<?xml version="1.0" encoding="UTF-8" standalone="no"?>
<svg
   xmlns:dc="http://purl.org/dc/elements/1.1/"
   xmlns:cc="http://creativecommons.org/ns#"
   xmlns:rdf="http://www.w3.org/1999/02/22-rdf-syntax-ns#"
   xmlns:svg="http://www.w3.org/2000/svg"
   xmlns="http://www.w3.org/2000/svg"
   xmlns:sodipodi="http://sodipodi.sourceforge.net/DTD/sodipodi-0.dtd"
   xmlns:inkscape="http://www.inkscape.org/namespaces/inkscape"
   inkscape:version="1.0 (4035a4fb49, 2020-05-01)"
   version="1.1"
   id="DESIGNS"
   x="0px"
   y="0px"
   width="32px"
   height="32px"
   viewBox="0 0 32 32"
   style="enable-background:new 0 0 32 32;"
   xml:space="preserve"
   sodipodi:docname="monitor_graph.svg"><defs
   id="defs65"><inkscape:path-effect
     lpeversion="1"
     is_visible="true"
     id="path-effect83"
     effect="spiro" /><inkscape:path-effect
     lpeversion="1"
     is_visible="true"
     id="path-effect79"
     effect="spiro" /><inkscape:path-effect
     only_selected="false"
     apply_with_weight="true"
     apply_no_weight="true"
     helper_size="0"
     steps="2"
     weight="33.333333"
     lpeversion="1"
     is_visible="true"
     id="path-effect75"
     effect="bspline" /></defs><sodipodi:namedview
   inkscape:document-rotation="0"
   inkscape:current-layer="DESIGNS"
   inkscape:window-maximized="0"
   inkscape:window-y="0"
   inkscape:window-x="0"
   inkscape:cy="21.362469"
   inkscape:cx="13.351972"
   inkscape:zoom="13.5625"
   showgrid="false"
   id="namedview63"
   inkscape:window-height="982"
   inkscape:window-width="1560"
   inkscape:pageshadow="2"
   inkscape:pageopacity="0"
   guidetolerance="10"
   gridtolerance="10"
   objecttolerance="10"
   borderopacity="1"
   bordercolor="#666666"
   pagecolor="#ffffff" />
<title
   id="title48"
   property="dc:title">to save</title><desc
   id="desc50"
   property="dc:description">An icon for &quot;save&quot; from the Pictogram series on to [icon]. Downloaded from http://www.toicon.com/icons/pictogram_save by 131.211.54.239 on 2018-12-04. Licensed CC-BY, see http://toicon.com/license/ for details.</desc>
<rect
   y="4.4223781"
   x="-0.37153187"
   height="5.6790047"
   width="5.9752183"
   id="rect2180"
   style="fill:#ff0000;fill-rule:evenodd;fill-opacity:1" /><rect
   y="22.191963"
   x="5.674551"
   height="5.9739356"
   width="5.9752183"
   id="rect2178"
   style="fill:#0000ff;fill-rule:evenodd" /><g
   style="stroke:#cccccc;stroke-opacity:1"
   inkscape:label="GridCartesian:X6:Y6"
   transform="translate(-0.37153186,-1.5776221)"
   id="g2161"><g
     style="stroke:#cccccc;stroke-opacity:1"
     inkscape:label="MajorXGridlines"
     id="g2145"><path
       style="fill:none;stroke:#cccccc;stroke-width:1;stroke-opacity:1"
       d="M 6,0 V 36"
       inkscape:label="MajorXDiv1"
       id="path2135" /><path
       style="fill:none;stroke:#cccccc;stroke-width:1;stroke-opacity:1"
       d="M 12,0 V 36"
       inkscape:label="MajorXDiv2"
       id="path2137" /><path
       style="fill:none;stroke:#cccccc;stroke-width:1;stroke-opacity:1"
       d="M 18,0 V 36"
       inkscape:label="MajorXDiv3"
       id="path2139" /><path
       style="fill:none;stroke:#cccccc;stroke-width:1;stroke-opacity:1"
       d="M 24,0 V 36"
       inkscape:label="MajorXDiv4"
       id="path2141" /><path
       style="fill:none;stroke:#cccccc;stroke-width:1;stroke-opacity:1"
       d="M 30,0 V 36"
       inkscape:label="MajorXDiv5"
       id="path2143" /></g><g
     style="stroke:#cccccc;stroke-opacity:1"
     inkscape:label="MajorYGridlines"
     id="g2157"><path
       style="fill:none;stroke:#cccccc;stroke-width:1;stroke-opacity:1"
       d="M 0,6 H 36"
       inkscape:label="MajorYDiv1"
       id="path2147" /><path
       style="fill:none;stroke:#cccccc;stroke-width:1;stroke-opacity:1"
       d="M 0,12 H 36"
       inkscape:label="MajorYDiv2"
       id="path2149" /><path
       style="fill:none;stroke:#cccccc;stroke-width:1;stroke-opacity:1"
       d="M 0,18 H 36"
       inkscape:label="MajorYDiv3"
       id="path2151" /><path
       style="fill:none;stroke:#cccccc;stroke-width:1;stroke-opacity:1"
       d="M 0,24 H 36"
       inkscape:label="MajorYDiv4"
       id="path2153" /><path
       style="fill:none;stroke:#cccccc;stroke-width:1;stroke-opacity:1"
       d="M 0,30 H 36"
       inkscape:label="MajorYDiv5"
       id="path2155" /></g><rect
     x="0"
     y="0"
     width="36"
     height="36"
     style="fill:none;stroke:#cccccc;stroke-width:1;stroke-opacity:1"
     inkscape:label="Border"
     id="rect2159" /></g><g
   transform="translate(3.3367619,59.227525)"
   id="g58">
	<path
   id="path52"
   style="fill:#0c6667"
   d="m 32,29 c 0,1.65 -1.35,3 -3,3 H 3 C 1.35,32 0,30.65 0,29 V 3 C 0,1.35 1.35,0 3,0 h 26 c 1.65,0 3,1.35 3,3 z"
   class="pictogram_zes" />
	<path
   id="path54"
   style="fill:#f4d6b0"
   d="M 21,8 V 0 h 5 V 8 Z M 6,0 V 8 H 18 V 0 Z M 25,16 H 7 c -1.65,0 -3,1.35 -3,3 v 7 h 24 v -7 c 0,-1.65 -1.35,-3 -3,-3 z"
   class="pictogram_een" />
	<rect
   id="rect56"
   style="fill:#e54d2e"
   height="6"
   width="24"
   class="pictogram_vier"
   y="26"
   x="4" />
</g>
<metadata
   id="metadata60"><work
     rdf:about=""><format>image/svg+xml</format><type
       rdf:resource="http://purl.org/dc/dcmitype/StillImage" /><license
       rdf:resource="http://creativecommons.org/licenses/by/4.0/" /><attributionname>Jo Szczepanska</attributionname><attributionurl>http://www.toicon.com/icons/pictogram_save</attributionurl></work><rdf:RDF><cc:Work
       rdf:about=""><dc:format>image/svg+xml</dc:format><dc:type
         rdf:resource="http://purl.org/dc/dcmitype/StillImage" /></cc:Work></rdf:RDF></metadata><path
   id="path509-8"
   title="sin(x)"
   d="m 2.571392,8.2027969 c 0.850746,-1.221761 1.701492,-2.4419597 2.5522275,-3.5000157 0.850746,-1.058062 1.7014923,-1.951326 2.5522383,-2.562194 0.850735,-0.610868 1.7014789,-0.937822 2.5522222,-0.937822 0.850716,0 1.701523,0.326954 2.552229,0.937822 0.850705,0.610868 1.701512,1.504132 2.552217,2.562194 0.850807,1.058056 1.701512,2.2782547 2.552218,3.5000157 0.850807,1.2216985 1.701512,2.4419581 2.552217,3.5000131 0.850807,1.058057 1.701513,1.951283 2.552319,2.562132 0.850706,0.610911 1.701411,0.937822 2.552218,0.937822 0.850705,0 1.701411,-0.326911 2.552218,-0.937822 0.850705,-0.610849 1.70141,-1.504076 2.552217,-2.562132 0.850706,-1.058055 1.701512,-2.2783146 2.552218,-3.5000131"
   style="fill:none;fill-rule:evenodd;stroke:#960000;stroke-width:1.5;stroke-opacity:1;stroke-miterlimit:4;stroke-dasharray:none" /><path
   style="fill:none;fill-rule:evenodd;stroke:#000096;stroke-width:1.5;stroke-opacity:1;stroke-miterlimit:4;stroke-dasharray:none"
   d="m 8.5771144,24.920815 c 0.6690723,0.701968 1.3381361,1.110609 2.0072086,1.172271 0.669064,0.06166 1.338136,-0.225183 2.007208,-0.820921 0.669064,-0.59574 1.338137,-1.50064 2.007167,-2.59416 0.669081,-1.09351 1.338162,-2.374 2.007243,-3.67228 0.66908,-1.29829 1.338161,-2.61125 2.007242,-3.76645 0.668996,-1.1552 1.338077,-2.1488 2.007158,-2.8513 0.669081,-0.7026 1.338161,-1.1107 2.007242,-1.1723 0.669081,-0.0617 1.338162,0.2252 2.007158,0.8209 0.669081,0.5958 1.338162,1.5006 2.007242,2.5942 0.669081,1.0935 1.338162,2.37396 2.007243,3.67225 0.668995,1.29828 1.338076,2.61125 2.007158,3.76643 0.66908,1.15517 1.338161,2.14881 2.007242,2.85136"
   title="sin(x+1)"
   id="path1519" /></svg>
