<?xml version="1.0" encoding="UTF-8"?>
<!-- Generator: Adobe Illustrator 19.1.0, SVG Export Plug-In . SVG Version: 6.00 Build 0)  -->
<svg xmlns="http://www.w3.org/2000/svg" xmlns:xlink="http://www.w3.org/1999/xlink" xmlns:dc="http://purl.org/dc/elements/1.1/" xmlns:cc="http://creativecommons.org/ns#" xmlns:rdf="http://www.w3.org/1999/02/22-rdf-syntax-ns#" version="1.1" id="DESIGNS" x="0px" y="0px" width="32px" height="32px" viewBox="0 0 32 32" style="enable-background:new 0 0 32 32;" xml:space="preserve">
<title property="dc:title">to enlarge</title><desc property="dc:description">An icon for "enlarge" from the Sharp Corners series on to [icon]. Downloaded from http://www.toicon.com/icons/sharp-corners_enlarge by 131.211.54.59 on 2022-02-28. Licensed CC-BY, see http://toicon.com/license/ for details.</desc>
<path class="sharpcorners_een" d="M19,2C12.925,2,8,6.925,8,13c0,2.677,0.958,5.13,2.549,7.037l-2.256,2.256l-0.707-0.707l-6,6  l2.828,2.828l6-6l-0.707-0.707l2.256-2.256C13.87,23.042,16.323,24,19,24c6.075,0,11-4.925,11-11S25.075,2,19,2z M19,22  c-4.963,0-9-4.037-9-9c0-4.963,4.037-9,9-9c4.963,0,9,4.037,9,9C28,17.963,23.963,22,19,22z M20,12h3v2h-3v3h-2v-3h-3v-2h3V9h2V12z" style="fill: #111918;"/>
<metadata><work rdf:about=""><format>image/svg+xml</format><type rdf:resource="http://purl.org/dc/dcmitype/StillImage"/><license rdf:resource="http://creativecommons.org/licenses/by/4.0/"/><attributionname>Shannon E Thomas</attributionname><attributionurl>http://www.toicon.com/icons/sharp-corners_enlarge</attributionurl></work></metadata></svg>
